HIERARCHY
ROOT Hips
{
	OFFSET -3.958830 18.904000 13.208200
	CHANNELS 6 Xposition Yposition Zposition Zrotation Yrotation Xrotation 
	JOINT LHipJoint
	{
		OFFSET 0.000000 0.000000 0.000000
		CHANNELS 3 Zrotation Yrotation Xrotation
		JOINT LeftUpLeg
		{
			OFFSET 1.800000 -1.400000 0.085000
			CHANNELS 3 Zrotation Yrotation Xrotation
			JOINT LeftLeg
			{
				OFFSET 2.215000 -6.000000 0.000000
				CHANNELS 3 Zrotation Yrotation Xrotation
				JOINT LeftFoot
				{
					OFFSET 2.500000 -6.900000 0.000000
					CHANNELS 3 Zrotation Yrotation Xrotation
					JOINT LeftToeBase
					{
						OFFSET 0.200000 -0.500000 1.950000
						CHANNELS 3 Zrotation Yrotation Xrotation
						End Site
						{
							OFFSET 0.000000 0.000000 0.000000
						}
					}
				}
			}
		}
	}
	JOINT RHipJoint
	{
		OFFSET 0.000000 0.000000 0.000000
		CHANNELS 3 Zrotation Yrotation Xrotation
		JOINT RightUpLeg
		{
			OFFSET -1.800000 -1.400000 0.085000
			CHANNELS 3 Zrotation Yrotation Xrotation
			JOINT RightLeg
			{
				OFFSET -2.215000 -6.000000 0.000000
				CHANNELS 3 Zrotation Yrotation Xrotation
				JOINT RightFoot
				{
					OFFSET -2.500000 -6.900000 0.000000
					CHANNELS 3 Zrotation Yrotation Xrotation
					JOINT RightToeBase
					{
						OFFSET -0.200000 -0.500000 1.950000
						CHANNELS 3 Zrotation Yrotation Xrotation
						End Site
						{
							OFFSET 0.000000 0.000000 0.000000
						}
					}
				}
			}
		}
	}
	JOINT LowerBack
	{
		OFFSET 0.000000 0.000000 0.000000
		CHANNELS 3 Zrotation Yrotation Xrotation
		JOINT Spine
		{
			OFFSET -0.087000 1.940000 -0.288900
			CHANNELS 3 Zrotation Yrotation Xrotation
			JOINT Spine1
			{
				OFFSET 0.000000 1.950000 0.060000
				CHANNELS 3 Zrotation Yrotation Xrotation
				JOINT Neck
				{
					OFFSET 0.000000 0.000000 0.000000
					CHANNELS 3 Zrotation Yrotation Xrotation
					JOINT Neck1
					{
						OFFSET 0.000000 1.600000 0.340000
						CHANNELS 3 Zrotation Yrotation Xrotation
						JOINT Head
						{
							OFFSET 0.000000 1.667000 -0.240000
							CHANNELS 3 Zrotation Yrotation Xrotation
							End Site
							{
								OFFSET 0.000000 0.000000 0.000000
							}
						}
					}
				}
				JOINT LeftShoulder
				{
					OFFSET 0.000000 0.000000 0.000000
					CHANNELS 3 Zrotation Yrotation Xrotation
					JOINT LeftArm
					{
						OFFSET 2.700000 1.550000 -0.730000
						CHANNELS 3 Zrotation Yrotation Xrotation
						JOINT LeftForeArm
						{
							OFFSET 5.450000 0.000000 0.000000
							CHANNELS 3 Zrotation Yrotation Xrotation
							JOINT LeftHand
							{
								OFFSET 3.450000 0.000000 0.000000
								CHANNELS 3 Zrotation Yrotation Xrotation
								JOINT LeftHandIndex1
								{
									OFFSET 0.750000 0.000000 0.000000
									CHANNELS 3 Zrotation Yrotation Xrotation
									End Site
									{
										OFFSET 0.000000 0.000000 0.000000
									}
								}
							}
						}
					}
				}
				JOINT RightShoulder
				{
					OFFSET 0.000000 0.000000 0.000000
					CHANNELS 3 Zrotation Yrotation Xrotation
					JOINT RightArm
					{
						OFFSET -2.700000 1.550000 -0.730000
						CHANNELS 3 Zrotation Yrotation Xrotation
						JOINT RightForeArm
						{
							OFFSET -5.450000 0.000000 0.000000
							CHANNELS 3 Zrotation Yrotation Xrotation
							JOINT RightHand
							{
								OFFSET -3.450000 0.000000 0.000000
								CHANNELS 3 Zrotation Yrotation Xrotation
								JOINT RightHandIndex1
								{
									OFFSET -0.750000 0.000000 0.000000
									CHANNELS 3 Zrotation Yrotation Xrotation
									End Site
									{
										OFFSET 0.000000 0.000000 0.000000
									}
								}
							}
						}
					}
				}
			}
		}
	}
}
MOTION
Frames: 10
Frame Time: 0.016667
0.887770 16.343950 -3.408940 -1.675750 -29.375651 -3.740181 -15.522882 12.242855 5.731940 11.936736 -4.724999 -44.997872 -14.866228 16.474808 43.309709 0.888424 9.350373 1.066896 0.248920 0.191170 0.341110 18.055288 -10.294574 1.868269 -4.284623 1.997474 -7.275270 2.005484 -6.157127 31.955885 -0.447328 -4.844930 2.629711 0.060300 -0.236250 0.063470 -2.549792 -2.365763 -8.648699 7.232817 4.656593 36.299569 1.644990 9.433089 4.130116 3.939365 -1.471310 -10.739225 -4.510332 -1.045613 38.648624 -5.945620 2.142450 -7.007800 -16.711258 0.955112 2.849700 -18.362521 22.153353 -4.662585 -3.030623 6.154409 -1.345551 -3.860390 2.742321 0.161870 -0.101680 0.171140 -0.027280 8.446470 6.314642 7.446364 1.041262 -7.325487 -3.369510 -24.955542 9.255592 -1.354910 2.765357 -1.491148 0.072790 -0.065320 -0.150090 -0.123230 
0.879330 16.326800 -3.450340 -2.329937 -29.197223 -3.974576 -15.552759 12.397097 5.648466 11.394744 -4.772679 -45.139713 -12.693513 15.652349 44.320648 0.833090 9.205997 1.100539 0.243780 0.178190 0.355920 18.023099 -10.202027 1.916374 -3.844189 1.951512 -6.781488 2.775054 -6.454329 31.914178 -0.465824 -4.902199 2.605331 0.052320 -0.255390 0.068400 -2.441661 -2.716476 -8.664024 7.976517 4.669321 37.110295 2.893060 9.870496 3.736858 3.911471 -1.597104 -10.753167 -4.854535 -1.344455 38.743032 -7.132010 2.273940 -7.131720 -16.679444 1.048163 2.767493 -17.490703 22.311071 -4.549658 -3.483121 7.086264 -1.492624 -3.877638 2.723947 0.169210 -0.104920 0.177380 -0.042560 8.499865 6.615203 7.603160 1.186582 -7.554603 -3.817445 -27.615075 5.707507 -1.005019 2.828832 -1.528815 0.073260 -0.076780 -0.145970 -0.136090 
0.862320 16.315720 -3.493110 -2.848891 -29.097038 -3.889033 -15.632183 12.575637 5.601980 10.795935 -4.822579 -45.824172 -10.398818 14.809535 45.322876 0.778389 9.072895 1.139461 0.235030 0.166750 0.358870 17.959717 -10.018046 1.953890 -2.941940 2.086583 -6.895800 3.022233 -6.506750 32.389034 -0.471906 -4.934041 2.598077 0.050420 -0.253380 0.065810 -2.211592 -3.269784 -8.702728 7.385283 4.926792 37.794586 5.341169 10.254542 2.025823 3.478029 -1.961064 -9.991176 -5.555697 -1.314272 38.905817 -8.200510 2.495740 -7.085670 -16.797084 2.166500 2.572001 -17.897177 23.244587 -4.671891 -2.359970 6.662758 -1.301975 -3.887325 2.715824 0.167210 -0.097510 0.172030 -0.048070 9.615499 6.408161 6.521506 2.806572 -6.419369 -5.922941 -37.805295 5.894113 -1.835190 2.831199 -1.664323 0.065030 -0.070680 -0.140060 -0.141710 
0.831080 16.314250 -3.528060 -3.487761 -29.318285 -3.311916 -15.748889 12.725454 5.590191 10.897515 -4.432697 -46.729596 -9.083662 14.411415 45.522026 0.727717 9.009645 1.155339 0.224920 0.154230 0.359100 17.880607 -9.768981 1.986843 -1.444793 2.310762 -7.351434 2.553049 -6.182209 32.905057 -0.460930 -4.901195 2.612654 0.053780 -0.236810 0.071940 -1.911929 -3.885985 -8.753180 6.113260 5.505527 37.695808 8.634701 10.804419 0.158197 2.791283 -2.240527 -8.737793 -6.076915 -1.054885 38.934671 -9.509370 3.169610 -6.681780 -17.220984 3.695702 2.234906 -18.045506 23.927896 -4.668582 -1.998165 6.271366 -1.243428 -3.899308 2.724650 0.152610 -0.071330 0.156780 -0.050960 11.635210 5.819133 4.948911 5.073104 -5.138614 -8.195583 -51.815571 10.578403 -4.736775 2.776014 -1.798865 0.054690 -0.066630 -0.130710 -0.146840 
0.790770 16.319300 -3.568440 -3.716924 -29.936308 -2.923140 -15.887678 12.853870 5.594115 11.483910 -3.767543 -47.536259 -8.573065 14.588002 45.625279 0.700725 9.092711 1.116663 0.217560 0.145960 0.374840 17.793430 -9.494048 1.989801 0.026114 2.625572 -7.927805 1.446306 -5.603716 33.751272 -0.457139 -4.857546 2.625522 0.058080 -0.233070 0.076930 -1.564729 -4.518685 -8.792271 3.712605 6.341227 37.526262 12.052122 11.324808 -1.673686 2.055282 -2.115564 -7.346984 -5.806601 -0.385946 39.053688 -10.885780 4.720230 -6.820390 -17.142968 5.826423 1.762520 -18.179404 24.796917 -4.753096 -1.545035 5.365086 -1.159634 -3.902270 2.724647 0.152460 -0.050870 0.154600 -0.061050 13.340337 4.325889 3.413073 9.165129 -3.482371 -9.718912 -67.127312 19.068824 -11.322931 2.681818 -1.833379 0.040500 -0.063100 -0.124250 -0.163340 
0.756060 16.326020 -3.603320 -3.825485 -30.009364 -2.462931 -15.966439 12.948128 5.586512 11.467343 -3.460928 -48.256435 -7.671929 14.406496 45.590227 0.675373 9.025225 1.129794 0.195140 0.122590 0.376660 17.741570 -9.308599 2.025030 0.909362 2.956081 -8.729956 1.263305 -5.422658 34.411998 -0.453320 -4.852842 2.624387 0.042690 -0.235110 0.079180 -1.370643 -4.943288 -8.828247 2.105138 6.421351 37.246567 14.463247 11.362121 -3.667088 1.323513 -2.140745 -6.206100 -5.875853 0.527685 39.804174 -12.208060 6.316860 -6.317710 -16.343906 8.461016 1.149138 -19.285189 25.655081 -5.236580 -0.391698 2.939382 -0.900726 -3.897117 2.735072 0.147860 -0.037730 0.152990 -0.074580 14.268319 2.086905 2.301921 15.030556 -2.013504 -10.182364 -82.475930 27.913501 -21.869557 2.571472 -1.779232 0.035470 -0.072240 -0.114430 -0.173360 
0.718290 16.316850 -3.633270 -3.911651 -30.067419 -1.916852 -16.043114 12.950970 5.650939 11.882644 -3.143414 -49.306616 -7.371647 14.658713 45.902851 0.697749 9.120565 1.090410 0.170920 0.091940 0.383010 17.703825 -9.120614 2.044192 1.700689 3.260199 -9.539101 1.157228 -5.320623 35.116539 -0.460105 -4.860753 2.616514 0.014010 -0.253420 0.082680 -1.223485 -5.252491 -8.890195 0.664166 6.559144 37.054640 16.542684 11.561394 -5.509265 0.630328 -1.807818 -5.515542 -5.310562 1.202322 40.437047 -13.320510 7.952920 -5.839500 -14.662048 10.897577 0.650461 -20.294705 26.296129 -5.965842 -0.371271 0.319728 -0.793610 -3.870653 2.752248 0.154490 -0.038210 0.162860 -0.089990 14.252742 -0.404193 1.894281 22.066069 -1.832818 -9.944382 -97.339965 34.559260 -35.727145 2.463395 -1.684059 0.036290 -0.095740 -0.111630 -0.186100 
0.679610 16.304040 -3.657680 -3.843174 -29.952948 -1.473942 -16.099573 12.906923 5.733803 12.308164 -2.953532 -50.302583 -7.319797 14.982524 46.190359 0.701620 9.243424 1.041189 0.146220 0.055510 0.397650 17.681400 -8.989978 2.043529 2.142485 3.483364 -10.376371 1.002764 -5.261933 35.763893 -0.464423 -4.870272 2.604061 -0.009520 -0.271910 0.082220 -1.133443 -5.419158 -8.932838 -0.645690 6.614138 36.494843 18.277754 11.545597 -6.854737 -0.037057 -1.221048 -4.885662 -4.362036 1.470167 40.806667 -14.472610 9.225820 -5.890730 -12.967305 13.230537 0.082185 -21.144349 26.250506 -6.536103 -0.293895 -1.336184 -0.722968 -3.863483 2.738383 0.174870 -0.040200 0.172000 -0.113740 14.134479 -3.225831 1.730609 29.069884 -2.354031 -8.888564 -111.677752 40.004498 -54.478312 2.377341 -1.570632 0.023990 -0.106100 -0.101090 -0.208810 
0.644070 16.295130 -3.679410 -4.045632 -29.907909 -1.133479 -16.127542 12.869679 5.795347 13.018428 -2.643893 -50.769955 -7.691237 15.320761 45.986982 0.712740 9.309481 1.011884 0.139400 0.043340 0.404110 17.676233 -8.882320 2.072008 2.692022 3.706688 -11.088423 0.957166 -5.310012 36.694248 -0.490665 -4.937103 2.575248 -0.025230 -0.291070 0.077510 -1.109447 -5.540046 -8.986366 -1.288911 6.273733 36.140561 19.717639 11.338396 -7.999201 -0.895439 -1.087072 -4.346130 -4.397218 1.739616 41.535080 -14.681810 9.514370 -5.791750 -11.473229 15.494295 -0.393281 -22.379522 26.355416 -7.150002 0.361100 -2.524475 -0.611878 -3.847991 2.729087 0.190270 -0.056580 0.184750 -0.122520 14.496116 -5.676916 1.646572 34.705542 -3.392954 -7.336525 -124.906856 43.782851 -76.806164 2.393471 -1.621174 0.026180 -0.112330 -0.100790 -0.214810 
0.604130 16.272420 -3.705410 -3.872313 -30.029769 -1.383683 -16.098211 12.806643 5.789694 13.562535 -2.343647 -50.417736 -8.419634 15.692050 45.458844 0.698122 9.347544 0.987224 0.153850 0.062540 0.424870 17.707080 -8.898909 2.101634 2.799223 3.911587 -11.595021 0.932756 -5.483228 38.000919 -0.541830 -5.106154 2.506375 -0.013000 -0.304150 0.076610 -1.201757 -5.388518 -8.983888 -1.777772 5.718772 35.583309 19.883538 10.248091 -7.800650 -1.559977 -0.611381 -3.836601 -3.592156 2.302908 42.183698 -14.668500 10.134830 -6.422530 -10.854813 16.847468 -0.624077 -22.371703 26.649944 -7.254744 0.509712 -2.577949 -0.601273 -3.841179 2.713457 0.207600 -0.063880 0.202050 -0.128080 15.182180 -7.718334 0.992167 40.337620 -3.430748 -5.657021 -138.767719 47.630002 -104.695631 2.389670 -1.899372 0.023860 -0.102440 -0.102650 -0.224960 
